<svg xmlns="http://www.w3.org/2000/svg" viewBox="0 0 340 340"><path d="M40 300h190l-18-168c-4-42-37-74-77-74s-73 32-77 74z" fill="#FA6800" stroke="#fff" stroke-width="7"/><circle cx="108" cy="135" r="8"/><circle cx="163" cy="135" r="8"/><path d="M101 174q35 35 70 0" fill="none" stroke="#111" stroke-width="8" stroke-linecap="round"/><path d="M220 190h58q23 0 17 22l-18 62q-4 16-22 16h-55v-77z" fill="#FA6800" stroke="#fff" stroke-width="7"/><path d="M226 208q12-26 19-62 4-19 20-14 18 5 9 38l-7 28" fill="#FA6800" stroke="#fff" stroke-width="7"/><text x="160" y="325" text-anchor="middle" font-family="Arial" font-size="14" font-weight="900" fill="#fff">THUMBS UP · PLACEHOLDER</text></svg>

